<?xml version="1.0" encoding="UTF-8"?>
<svg id="_レイヤー_4" data-name="レイヤー 4" xmlns="http://www.w3.org/2000/svg" viewBox="0 0 800 600">
  <defs>
    <style>
      .cls-1 {
        fill: #db775e;
      }

      .cls-2 {
        fill: #fff;
      }
    </style>
  </defs>
  <g id="_コピー2" data-name="コピー2">
    <path d="M606.13,489.68h-88.78,0s-234.7,0-234.7,0h0s-88.78,0-88.78,0c-2.96,0-5.37,2.4-5.37,5.37v7.27c0,2.96,2.4,5.37,5.37,5.37h412.27c2.96,0,5.37-2.4,5.37-5.37v-7.27c0-2.96-2.4-5.37-5.37-5.37Z"/>
    <polygon points="492.47 401.53 307.53 401.53 282.65 489.68 517.35 489.68 492.47 401.53"/>
    <polygon points="464.08 300.96 335.92 300.96 321.06 353.61 478.94 353.61 464.08 300.96"/>
    <path class="cls-1" d="M417.13,134.66c-4.88-17.28-29.38-17.28-34.26,0l-33.37,118.2h101l-33.37-118.2Z"/>
    <rect x="282.65" y="489.68" width="234.7" height="0" transform="translate(-122.63 133.81) rotate(-16.5)"/>
    <polygon class="cls-2" points="450.5 252.86 349.5 252.86 335.92 300.96 464.08 300.96 450.5 252.86"/>
    <polygon class="cls-2" points="478.94 353.61 321.06 353.61 307.53 401.53 492.47 401.53 478.94 353.61"/>
  </g>
</svg>